<svg width="806" height="253" viewBox="0 0 806 253" fill="none" xmlns="http://www.w3.org/2000/svg">
<path d="M74.6087 90.8182V113.83H11.4553V90.8182H74.6087ZM24.6229 189V85.8324C24.6229 78.2472 26.0504 71.9616 28.9055 66.9759C31.7607 61.9474 35.7237 58.1974 40.7947 55.7259C45.8658 53.2116 51.7251 51.9545 58.3729 51.9545C62.7195 51.9545 66.8104 52.2954 70.6456 52.9773C74.5234 53.6165 77.3999 54.1918 79.2749 54.7031L74.2891 77.5866C73.1385 77.2031 71.7322 76.8835 70.0703 76.6278C68.451 76.3722 66.9169 76.2443 65.468 76.2443C61.8033 76.2443 59.2891 77.054 57.9254 78.6733C56.5618 80.2926 55.88 82.5085 55.88 85.321V189H24.6229ZM113.456 190.662C107.192 190.662 101.631 189.618 96.7731 187.53C91.9577 185.399 88.1438 182.203 85.3313 177.942C82.5614 173.638 81.1765 168.247 81.1765 161.77C81.1765 156.315 82.1353 151.713 84.0529 147.963C85.9705 144.213 88.6126 141.166 91.979 138.822C95.3455 136.479 99.2234 134.71 103.613 133.517C108.002 132.281 112.689 131.45 117.675 131.024C123.257 130.513 127.753 129.98 131.162 129.426C134.571 128.83 137.043 127.999 138.577 126.933C140.154 125.825 140.942 124.27 140.942 122.267V121.947C140.942 118.666 139.813 116.131 137.554 114.341C135.296 112.551 132.249 111.656 128.414 111.656C124.28 111.656 120.956 112.551 118.442 114.341C115.928 116.131 114.33 118.602 113.648 121.756L84.82 120.733C85.6722 114.767 87.8668 109.44 91.4038 104.753C94.9833 100.023 99.8839 96.3153 106.105 93.6307C112.37 90.9034 119.891 89.5398 128.669 89.5398C134.934 89.5398 140.708 90.2855 145.992 91.777C151.276 93.2258 155.878 95.3565 159.799 98.169C163.719 100.939 166.745 104.348 168.875 108.396C171.049 112.445 172.135 117.068 172.135 122.267V189H142.732V175.321H141.965C140.218 178.645 137.98 181.457 135.253 183.759C132.569 186.06 129.394 187.786 125.729 188.936C122.107 190.087 118.016 190.662 113.456 190.662ZM123.108 170.207C126.475 170.207 129.5 169.526 132.185 168.162C134.912 166.798 137.086 164.923 138.705 162.537C140.324 160.108 141.134 157.295 141.134 154.099V144.767C140.239 145.236 139.152 145.662 137.874 146.045C136.638 146.429 135.275 146.791 133.783 147.132C132.292 147.473 130.757 147.771 129.181 148.027C127.604 148.283 126.091 148.517 124.642 148.73C121.702 149.199 119.188 149.923 117.1 150.903C115.054 151.884 113.478 153.162 112.37 154.739C111.304 156.273 110.772 158.105 110.772 160.236C110.772 163.474 111.922 165.946 114.223 167.651C116.567 169.355 119.529 170.207 123.108 170.207ZM191.248 189V90.8182H222.505V189H191.248ZM206.908 79.3764C202.519 79.3764 198.748 77.9276 195.594 75.0298C192.441 72.0895 190.864 68.5526 190.864 64.419C190.864 60.3281 192.441 56.8338 195.594 53.9361C198.748 50.9957 202.519 49.5256 206.908 49.5256C211.34 49.5256 215.111 50.9957 218.222 53.9361C221.375 56.8338 222.952 60.3281 222.952 64.419C222.952 68.5526 221.375 72.0895 218.222 75.0298C215.111 77.9276 211.34 79.3764 206.908 79.3764ZM242.4 189V90.8182H272.123V108.844H273.21C275.255 102.878 278.707 98.169 283.565 94.7173C288.423 91.2656 294.218 89.5398 300.951 89.5398C307.769 89.5398 313.607 91.2869 318.465 94.7812C323.323 98.2756 326.413 102.963 327.734 108.844H328.756C330.589 103.006 334.168 98.3395 339.495 94.8452C344.822 91.3082 351.107 89.5398 358.352 89.5398C367.641 89.5398 375.184 92.5227 380.979 98.4886C386.775 104.412 389.673 112.551 389.673 122.906V189H358.415V130.065C358.415 125.165 357.158 121.436 354.644 118.879C352.13 116.28 348.87 114.98 344.864 114.98C340.56 114.98 337.173 116.386 334.701 119.199C332.272 121.969 331.058 125.697 331.058 130.385V189H301.015V129.746C301.015 125.186 299.779 121.585 297.308 118.943C294.836 116.301 291.576 114.98 287.528 114.98C284.8 114.98 282.393 115.641 280.305 116.962C278.217 118.24 276.576 120.072 275.383 122.459C274.232 124.845 273.657 127.658 273.657 130.896V189H242.4ZM454.871 190.854C444.516 190.854 435.631 188.723 428.217 184.462C420.844 180.2 415.177 174.277 411.214 166.692C407.251 159.064 405.269 150.243 405.269 140.229C405.269 130.172 407.251 121.351 411.214 113.766C415.219 106.138 420.908 100.193 428.281 95.9318C435.695 91.6705 444.538 89.5398 454.808 89.5398C463.884 89.5398 471.789 91.1804 478.522 94.4616C485.298 97.7429 490.582 102.388 494.374 108.396C498.21 114.362 500.234 121.372 500.447 129.426H471.235C470.638 124.398 468.934 120.456 466.121 117.601C463.352 114.746 459.729 113.318 455.255 113.318C451.633 113.318 448.458 114.341 445.731 116.386C443.004 118.389 440.873 121.372 439.339 125.335C437.847 129.256 437.102 134.114 437.102 139.909C437.102 145.705 437.847 150.605 439.339 154.611C440.873 158.574 443.004 161.578 445.731 163.624C448.458 165.626 451.633 166.628 455.255 166.628C458.153 166.628 460.71 166.01 462.925 164.774C465.184 163.538 467.038 161.727 468.487 159.341C469.935 156.912 470.852 153.972 471.235 150.52H500.447C500.148 158.616 498.124 165.69 494.374 171.741C490.667 177.793 485.447 182.501 478.714 185.868C472.023 189.192 464.076 190.854 454.871 190.854ZM562.274 190.854C551.961 190.854 543.098 188.744 535.683 184.526C528.311 180.264 522.622 174.341 518.616 166.756C514.653 159.128 512.672 150.286 512.672 140.229C512.672 130.129 514.653 121.287 518.616 113.702C522.622 106.074 528.311 100.151 535.683 95.9318C543.098 91.6705 551.961 89.5398 562.274 89.5398C572.586 89.5398 581.429 91.6705 588.801 95.9318C596.216 100.151 601.904 106.074 605.868 113.702C609.873 121.287 611.876 130.129 611.876 140.229C611.876 150.286 609.873 159.128 605.868 166.756C601.904 174.341 596.216 180.264 588.801 184.526C581.429 188.744 572.586 190.854 562.274 190.854ZM562.466 167.267C566.216 167.267 569.39 166.116 571.99 163.815C574.589 161.514 576.571 158.318 577.934 154.227C579.341 150.136 580.044 145.406 580.044 140.037C580.044 134.582 579.341 129.81 577.934 125.719C576.571 121.628 574.589 118.432 571.99 116.131C569.39 113.83 566.216 112.679 562.466 112.679C558.588 112.679 555.306 113.83 552.622 116.131C549.98 118.432 547.956 121.628 546.549 125.719C545.186 129.81 544.504 134.582 544.504 140.037C544.504 145.406 545.186 150.136 546.549 154.227C547.956 158.318 549.98 161.514 552.622 163.815C555.306 166.116 558.588 167.267 562.466 167.267ZM627.888 189V90.8182H658.25V108.716H659.273C661.063 102.239 663.982 97.4233 668.03 94.2699C672.078 91.0739 676.787 89.4759 682.157 89.4759C683.605 89.4759 685.097 89.5824 686.631 89.7955C688.165 89.9659 689.593 90.2429 690.914 90.6264V117.793C689.422 117.281 687.462 116.876 685.033 116.578C682.647 116.28 680.516 116.131 678.641 116.131C674.934 116.131 671.588 116.962 668.605 118.624C665.665 120.243 663.343 122.523 661.638 125.463C659.976 128.361 659.145 131.77 659.145 135.69V189H627.888ZM744.447 190.854C734.177 190.854 725.314 188.83 717.856 184.781C710.441 180.69 704.731 174.874 700.725 167.331C696.762 159.746 694.781 150.733 694.781 140.293C694.781 130.151 696.784 121.287 700.789 113.702C704.795 106.074 710.441 100.151 717.728 95.9318C725.015 91.6705 733.602 89.5398 743.488 89.5398C750.477 89.5398 756.869 90.6264 762.664 92.7997C768.46 94.973 773.467 98.1903 777.686 102.452C781.904 106.713 785.186 111.976 787.529 118.24C789.873 124.462 791.045 131.599 791.045 139.653V147.452H705.711V129.298H761.961C761.919 125.974 761.13 123.013 759.596 120.413C758.062 117.814 755.953 115.79 753.268 114.341C750.626 112.849 747.579 112.104 744.127 112.104C740.633 112.104 737.501 112.892 734.731 114.469C731.961 116.003 729.767 118.112 728.147 120.797C726.528 123.439 725.676 126.443 725.591 129.81V148.283C725.591 152.288 726.379 155.804 727.956 158.83C729.532 161.812 731.77 164.135 734.667 165.797C737.565 167.459 741.017 168.29 745.022 168.29C747.792 168.29 750.306 167.906 752.565 167.139C754.824 166.372 756.762 165.243 758.382 163.751C760.001 162.26 761.216 160.428 762.025 158.254L790.726 159.085C789.532 165.52 786.912 171.124 782.863 175.896C778.858 180.626 773.595 184.312 767.075 186.955C760.555 189.554 753.012 190.854 744.447 190.854Z" fill="#70A3B2"/>
</svg>
